#format: frame checksums
#version: 2
#hash: MD5
#tb 0: 1/15
#media_type 0: video
#codec_id 0: rawvideo
#dimensions 0: 320x180
#sar 0: 0/1
#tb 1: 1/44100
#media_type 1: audio
#codec_id 1: pcm_s16le
#sample_rate 1: 44100
#channel_layout 1: 3
#channel_layout_name 1: stereo
#stream#, dts,        pts, duration,     size, hash
0,          0,          0,        1,   172800, 1ccc7d3bebe47c03675249005b1b5e64
1,          0,          0,    22050,    88200, e9ded829730eccd2d0273d7cc06be58c
0,          1,          1,        1,   172800, 89387ce8072833d41dc366401d858cca
0,          2,          2,        1,   172800, b3ace3f57212860b81b9461d2da3086f
0,          3,          3,        1,   172800, e8228dc015a8b9012a6c3b66f461ba60
0,          4,          4,        1,   172800, 9bbe737e220ef16caa90e5e0fcb84ae3
0,          5,          5,        1,   172800, 66fc6225fb86953a34e537954b1626e1
0,          6,          6,        1,   172800, cfadf60ddf2800d3b31097d546391881
0,          7,          7,        1,   172800, 7a49238e8983ea78b3071f41c6fe03a1
1,      22050,      22050,    22050,    88200, e9ded829730eccd2d0273d7cc06be58c
0,          8,          8,        1,   172800, a601e0911c2445a5c2f3ebd4da724021
0,          9,          9,        1,   172800, f8eba119879c10ad35e663d694835643
0,         10,         10,        1,   172800, 49c6049b3462f9e5de9c5e1b2aa2d4fd
0,         11,         11,        1,   172800, c0c61a13b0b25dd1bed4e542baca74a9
0,         12,         12,        1,   172800, cafe4f06a0d090313850a52b9591179c
0,         13,         13,        1,   172800, b43e60a4d3ae46f5e8d46dde53940687
0,         14,         14,        1,   172800, ef8f5e672c1c4753b679a3e8494698ad
0,         15,         15,        1,   172800, 43dd3b6ec8c6b16b4fcece549c4e8a9b
1,      44100,      44100,    22050,    88200, e9ded829730eccd2d0273d7cc06be58c
0,         16,         16,        1,   172800, ef20c82fc238d8a04de6eac93c0460ae
0,         17,         17,        1,   172800, 859976814ad567060e0e02cb07aa3efa
0,         18,         18,        1,   172800, 831d51ba77c17f4328424ab2044c4c99
0,         19,         19,        1,   172800, e113844eb006a478ac21982d02920b3d
0,         20,         20,        1,   172800, e476150400c2430f63bc06f015374d7e
0,         21,         21,        1,   172800, 997e3795de85d81e4bfc3d36478bafd5
0,         22,         22,        1,   172800, 3b33ec8e9e48ea08e5cf73e210eca9dd
1,      66150,      66150,    22050,    88200, e9ded829730eccd2d0273d7cc06be58c
0,         23,         23,        1,   172800, 5504cbd86f8286607310782c4099ff11
0,         24,         24,        1,   172800, b887c2fba28fcbd85db7ad02c3cdf07d
0,         25,         25,        1,   172800, 43ee5c4852bd46f34b7229aad20c5ff8
0,         26,         26,        1,   172800, a91a1a274352c00932872210a68d199b
0,         27,         27,        1,   172800, cfb0968dfb3df54a2864501285fdc245
0,         28,         28,        1,   172800, 721a18463b9f5effacff43d66ace0279
0,         29,         29,        1,   172800, 3af6f4cfc18c3f59c7a492e08c5b7a05
0,         30,         30,        1,   172800, bea2c0fa93657d72ca7155da64646444
1,      88200,      88200,    22050,    88200, e9ded829730eccd2d0273d7cc06be58c
0,         31,         31,        1,   172800, 3dcfe4ae11f967da3b989d81b1566be2
0,         32,         32,        1,   172800, ab4c5823c823449e8288bb8fb588b930
0,         33,         33,        1,   172800, a22facaaed989ad469045900033ce5a0
0,         34,         34,        1,   172800, cab1076d07e00faaf45340bbe2937b86
0,         35,         35,        1,   172800, 540703a85359d683303b680a3ed01451
0,         36,         36,        1,   172800, 4c32a92228d178223430bec1148edf37
0,         37,         37,        1,   172800, ec6d5e784aed8ff579675441e7873ec2
1,     110250,     110250,    22050,    88200, e9ded829730eccd2d0273d7cc06be58c
0,         38,         38,        1,   172800, 1521e51b41983b2213a731b1e2d4bafd
0,         39,         39,        1,   172800, 243563ea7886ff6fd38105ba507d595d
0,         40,         40,        1,   172800, f8cb3a0aea126cad047cd42b7d37f8af
0,         41,         41,        1,   172800, 5933cbe6be459b52046f19ca5efee8f0
0,         42,         42,        1,   172800, f5312c790ce29793360cb87feb505e2e
0,         43,         43,        1,   172800, 4616c9f465c259204761a3ccc998e6ae
0,         44,         44,        1,   172800, 8a808c1a990871fb19027af9dd08b017
0,         45,         45,        1,   172800, 8a808c1a990871fb19027af9dd08b017
1,     132300,     132300,     2940,    11760, e3b746a110920a585a311c390a2bd1de
